<svg xmlns="http://www.w3.org/2000/svg" width="512" height="512" viewBox="0 0 512 512" role="img" aria-label="DorckDashboard ribbon hub wide bowls refinement">
  <path fill="#8356FF" d="M118 146C118 109 147 80 184 80H202C239 80 268 109 268 146V366C268 403 239 432 202 432H184C147 432 118 403 118 366V146Z"/>
  <path fill="#9167FF" d="M232 108H318C367 108 404 145 404 194V210C404 259 367 296 318 296H232V108Z"/>
  <path fill="#F5BF2F" d="M232 216H320C367 216 404 253 404 300V316C404 363 367 400 320 400H232V216Z"/>
</svg>
