<svg xmlns="http://www.w3.org/2000/svg" width="512" height="512" viewBox="0 0 512 512" role="img" aria-label="DorckDashboard ribbon hub precise refinement">
  <path fill="#8457FF" d="M124 148C124 112 152 84 188 84H204C240 84 268 112 268 148V364C268 400 240 428 204 428H188C152 428 124 400 124 364V148Z"/>
  <path fill="#9167FF" d="M236 114H310C359 114 398 153 398 202V202C398 251 359 290 310 290H236V114Z"/>
  <path fill="#F5BF2F" d="M236 222H310C359 222 398 261 398 310V310C398 359 359 398 310 398H236V222Z"/>
</svg>
